REM DIRINDEX 1\2,1\3,1\4,1\5,1\6
REM DIRNAME cjc129,folder01,folder02,folder03,folder04,folder05
TITLE ""
FILE "DISC3Track04.mp3" MP3
  TRACK 01 AUDIO
    TITLE "0:"
    INDEX 01 00:00:00
  TRACK 02 AUDIO
    TITLE "3:cjc129_2137"
    INDEX 01 00:00:05
  TRACK 03 AUDIO
    TITLE "0:"
    INDEX 01 00:03:25
  TRACK 04 AUDIO
    TITLE "5:cjc129_2138"
    INDEX 01 00:03:57
  TRACK 05 AUDIO
    TITLE "0:"
    INDEX 01 00:07:35
  TRACK 06 AUDIO
    TITLE "4:cjc129_2139"
    INDEX 01 00:08:24
  TRACK 07 AUDIO
    TITLE "0:"
    INDEX 01 00:11:46
  TRACK 08 AUDIO
    TITLE "6:cjc129_2140"
    INDEX 01 00:12:01
  TRACK 09 AUDIO
    TITLE "0:"
    INDEX 01 00:16:63
  TRACK 10 AUDIO
    TITLE "3:cjc129_2141"
    INDEX 01 00:18:46
  TRACK 11 AUDIO
    TITLE "0:"
    INDEX 01 00:21:51
  TRACK 12 AUDIO
    TITLE "5:cjc129_2142"
    INDEX 01 00:22:07
  TRACK 13 AUDIO
    TITLE "0:"
    INDEX 01 00:29:17
  TRACK 14 AUDIO
    TITLE "4:cjc129_2143"
    INDEX 01 00:30:12
  TRACK 15 AUDIO
    TITLE "0:"
    INDEX 01 00:33:21
  TRACK 16 AUDIO
    TITLE "6:cjc129_2144"
    INDEX 01 00:33:50
  TRACK 17 AUDIO
    TITLE "0:"
    INDEX 01 00:37:42
  TRACK 18 AUDIO
    TITLE "2:cjc129_2145"
    INDEX 01 00:39:15
  TRACK 19 AUDIO
    TITLE "0:"
    INDEX 01 00:43:25
  TRACK 20 AUDIO
    TITLE "3:cjc129_2146"
    INDEX 01 00:44:38
  TRACK 21 AUDIO
    TITLE "0:"
    INDEX 01 00:45:49
  TRACK 22 AUDIO
    TITLE "5:cjc129_2147"
    INDEX 01 00:46:06
  TRACK 23 AUDIO
    TITLE "0:"
    INDEX 01 00:47:52
  TRACK 24 AUDIO
    TITLE "4:cjc129_2148"
    INDEX 01 00:48:42
  TRACK 25 AUDIO
    TITLE "0:"
    INDEX 01 00:49:53
  TRACK 26 AUDIO
    TITLE "6:cjc129_2149"
    INDEX 01 00:50:09
  TRACK 27 AUDIO
    TITLE "0:"
    INDEX 01 00:54:17
  TRACK 28 AUDIO
    TITLE "3:cjc129_2150"
    INDEX 01 00:55:65
  TRACK 29 AUDIO
    TITLE "0:"
    INDEX 01 00:58:46
  TRACK 30 AUDIO
    TITLE "5:cjc129_2151"
    INDEX 01 00:59:00
  TRACK 31 AUDIO
    TITLE "0:"
    INDEX 01 01:02:42
  TRACK 32 AUDIO
    TITLE "4:cjc129_2152"
    INDEX 01 01:03:33
  TRACK 33 AUDIO
    TITLE "0:"
    INDEX 01 01:06:14
  TRACK 34 AUDIO
    TITLE "6:cjc129_2153"
    INDEX 01 01:06:43
  TRACK 35 AUDIO
    TITLE "0:"
    INDEX 01 01:11:47
  TRACK 36 AUDIO
    TITLE "3:cjc129_2154"
    INDEX 01 01:13:22
  TRACK 37 AUDIO
    TITLE "0:"
    INDEX 01 01:14:45
  TRACK 38 AUDIO
    TITLE "5:cjc129_2155"
    INDEX 01 01:15:03
  TRACK 39 AUDIO
    TITLE "0:"
    INDEX 01 01:17:32
  TRACK 40 AUDIO
    TITLE "4:cjc129_2156"
    INDEX 01 01:18:21
  TRACK 41 AUDIO
    TITLE "0:"
    INDEX 01 01:19:44
  TRACK 42 AUDIO
    TITLE "6:cjc129_2157"
    INDEX 01 01:20:02
  TRACK 43 AUDIO
    TITLE "0:"
    INDEX 01 01:24:24
  TRACK 44 AUDIO
    TITLE "3:cjc129_2158"
    INDEX 01 01:26:01
  TRACK 45 AUDIO
    TITLE "0:"
    INDEX 01 01:27:36
  TRACK 46 AUDIO
    TITLE "5:cjc129_2159"
    INDEX 01 01:27:69
  TRACK 47 AUDIO
    TITLE "0:"
    INDEX 01 01:30:05
  TRACK 48 AUDIO
    TITLE "4:cjc129_2160"
    INDEX 01 01:30:69
  TRACK 49 AUDIO
    TITLE "0:"
    INDEX 01 01:32:31
  TRACK 50 AUDIO
    TITLE "6:cjc129_2161"
    INDEX 01 01:32:66
  TRACK 51 AUDIO
    TITLE "0:"
    INDEX 01 01:37:15
  TRACK 52 AUDIO
    TITLE "3:cjc129_2162"
    INDEX 01 01:38:71
  TRACK 53 AUDIO
    TITLE "0:"
    INDEX 01 01:42:28
  TRACK 54 AUDIO
    TITLE "5:cjc129_2163"
    INDEX 01 01:42:59
  TRACK 55 AUDIO
    TITLE "0:"
    INDEX 01 01:46:41
  TRACK 56 AUDIO
    TITLE "4:cjc129_2164"
    INDEX 01 01:47:37
  TRACK 57 AUDIO
    TITLE "0:"
    INDEX 01 01:50:68
  TRACK 58 AUDIO
    TITLE "6:cjc129_2165"
    INDEX 01 01:51:27
  TRACK 59 AUDIO
    TITLE "0:"
    INDEX 01 01:57:04
  TRACK 60 AUDIO
    TITLE "3:cjc129_2166"
    INDEX 01 01:58:52
  TRACK 61 AUDIO
    TITLE "0:"
    INDEX 01 02:00:12
  TRACK 62 AUDIO
    TITLE "5:cjc129_2167"
    INDEX 01 02:00:45
  TRACK 63 AUDIO
    TITLE "0:"
    INDEX 01 02:08:37
  TRACK 64 AUDIO
    TITLE "4:cjc129_2168"
    INDEX 01 02:09:28
  TRACK 65 AUDIO
    TITLE "0:"
    INDEX 01 02:10:63
  TRACK 66 AUDIO
    TITLE "6:cjc129_2169"
    INDEX 01 02:11:19
  TRACK 67 AUDIO
    TITLE "0:"
    INDEX 01 02:15:07
